<?xml version="1.0" standalone="no"?>
<!DOCTYPE svg PUBLIC "-//W3C//DTD SVG 20010904//EN"
 "http://www.w3.org/TR/2001/REC-SVG-20010904/DTD/svg10.dtd">
<svg version="1.0" xmlns="http://www.w3.org/2000/svg"
 width="700.000000pt" height="700.000000pt" viewBox="0 0 700.000000 700.000000"
 preserveAspectRatio="xMidYMid meet">
<metadata>
Created by potrace 1.11, written by Peter Selinger 2001-2013
</metadata>
<g transform="translate(0.000000,700.000000) scale(0.100000,-0.100000)"
fill="#000000" stroke="none">
<path d="M3390 6967 c-73 -30 -3013 -1582 -3067 -1618 -59 -41 -101 -96 -118
-154 -11 -42 -14 -320 -17 -1700 l-3 -1650 23 -50 c30 -65 72 -108 152 -155
81 -48 2913 -1553 2994 -1591 74 -35 145 -44 212 -26 51 13 3013 1569 3112
1635 30 19 64 51 78 71 55 83 51 -15 55 1772 l4 1654 -23 50 c-30 65 -72 108
-152 155 -36 21 -423 228 -860 460 -437 232 -831 442 -875 465 -44 24 -222
118 -395 210 -173 92 -346 184 -385 205 -298 160 -466 247 -514 267 -73 30
-149 30 -221 0z m93 -12 c-66 -12 -207 -84 -1603 -821 -982 -518 -1546 -821
-1574 -845 -24 -21 -51 -53 -60 -71 l-17 -33 6 30 c8 37 45 86 86 116 31 22
2990 1586 3064 1620 26 11 63 18 105 17 l65 0 -72 -13z m10 -31 c-34 -7 -90
-27 -123 -44 -61 -31 -2633 -1387 -2888 -1523 -103 -54 -144 -83 -182 -124
-33 -36 -46 -46 -42 -30 3 12 28 44 56 71 44 43 235 147 1386 753 1854 978
1726 913 1797 912 l58 -1 -62 -14z m72 -46 c39 -18 30 -24 -39 -26 -36 -1 -76
-6 -91 -12 -39 -15 -2962 -1557 -3018 -1593 -27 -17 -60 -48 -74 -69 -40 -60
-58 -44 -29 27 19 44 68 78 245 171 153 80 269 142 386 204 39 21 124 66 190
100 66 35 147 77 180 95 33 18 119 63 190 100 72 37 191 100 265 140 74 40
198 105 275 145 77 40 145 76 150 80 6 4 91 49 190 100 99 51 185 96 190 100
6 4 87 47 180 95 94 48 175 91 180 95 6 4 91 49 190 100 99 51 195 102 213
113 92 55 161 65 227 35z m71 -44 c18 -14 18 -14 -6 -3 -31 14 -36 19 -24 19
6 0 19 -7 30 -16z m55 -31 c13 -15 12 -15 -8 -4 -24 12 -29 21 -14 21 5 0 15
-7 22 -17z m124 -63 c3 -6 -1 -7 -9 -4 -18 7 -21 14 -7 14 6 0 13 -4 16 -10z
m150 -80 c3 -6 -1 -7 -9 -4 -18 7 -21 14 -7 14 6 0 13 -4 16 -10z m-90 -367
c494 -262 2187 -1164 2309 -1230 60 -32 119 -71 130 -87 20 -26 21 -40 24
-374 1 -191 -1 -848 -5 -1459 l-8 -1113 -25 -24 c-14 -14 -407 -227 -875 -474
-1891 -999 -1887 -997 -1930 -997 -43 0 -10 -17 -885 448 -1609 853 -1904
1013 -1924 1040 l-21 29 1 1443 c1 1135 4 1451 14 1474 7 17 26 39 44 50 32
20 783 417 1886 998 951 502 859 456 905 450 27 -3 147 -61 360 -174z m880
-53 c3 -6 -1 -7 -9 -4 -18 7 -21 14 -7 14 6 0 13 -4 16 -10z"/>
<path d="M3275 5630 c-404 -87 -765 -389 -916 -767 -154 -384 -50 -757 323
-1150 110 -116 116 -131 99 -245 -44 -285 -245 -1067 -432 -1681 -68 -222 -69
-289 -3 -365 70 -82 -3 -77 1154 -77 969 0 1028 1 1072 18 95 37 149 139 129
244 -5 26 -30 120 -55 208 -147 523 -289 1073 -366 1420 -54 238 -67 325 -56
368 3 14 42 65 87 113 173 189 311 399 379 576 67 175 82 359 41 512 -91 340
-414 650 -814 780 -141 46 -215 58 -387 62 -136 3 -181 0 -255 -16z m358 -465
c309 -54 590 -272 637 -495 11 -52 11 -70 -4 -128 -40 -163 -151 -334 -347
-537 -95 -98 -147 -160 -161 -192 -30 -66 -35 -199 -14 -334 35 -218 156 -729
316 -1329 38 -145 70 -277 70 -292 0 -23 -5 -28 -32 -33 -48 -9 -1215 -1
-1224 8 -9 9 -1 42 86 352 136 484 257 993 295 1239 11 70 16 146 13 215 -5
154 -25 191 -174 334 -137 132 -222 241 -277 356 -35 72 -41 95 -45 166 -8
150 51 284 188 428 194 205 419 286 673 242z m750 -689 c-50 -173 -172 -362
-363 -560 -81 -84 -147 -163 -159 -188 l-20 -43 -1 33 c0 60 28 102 162 240
73 76 159 174 191 219 66 93 147 244 172 322 22 69 39 48 18 -23z m-147 -103
c-65 -131 -157 -254 -292 -392 -72 -75 -141 -152 -153 -171 -18 -28 -21 -30
-16 -10 13 46 43 84 145 185 56 55 129 135 163 178 61 78 177 261 177 280 0 6
3 8 6 5 3 -3 -10 -37 -30 -75z m21 -26 c-67 -135 -154 -253 -307 -412 -74 -77
-140 -150 -147 -160 -12 -20 -12 -20 -6 0 13 40 39 72 163 200 139 144 231
268 293 392 23 45 43 80 46 78 2 -3 -16 -47 -42 -98z m-97 -2525 c0 -31 -27
-32 -652 -32 -412 0 -628 3 -628 10 0 7 215 10 624 10 406 0 627 4 631 10 7
12 25 13 25 2z m40 -38 c0 -11 6 -15 18 -11 45 12 47 12 47 -12 0 -15 -11 -32
-28 -45 -28 -21 -32 -21 -720 -21 -643 0 -694 1 -717 18 -23 16 5 17 662 17
377 0 693 3 702 6 9 3 16 10 16 15 0 5 -281 9 -664 9 -366 0 -667 3 -669 8 -3
4 291 7 653 7 514 0 662 3 672 13 17 17 28 15 28 -4z"/>
</g>
</svg>
