<svg xmlns="http://www.w3.org/2000/svg" xmlns:xlink="http://www.w3.org/1999/xlink" version="1.1" x="0px" y="0px" viewBox="0 0 24 24" style="enable-background:new 0 0 24 24;" xml:space="preserve"><g><g><path d="M5.285,9.496c-1.44,0-2.907-0.218-3.82-0.942C0.824,8.046,0.5,7.355,0.5,6.5c0-1.038,0.495-1.553,0.91-1.804    c2.187-1.315,7.702,1.532,8.323,1.862c0.244,0.129,0.338,0.432,0.209,0.676C9.813,7.478,9.509,7.57,9.267,7.442    C7.108,6.301,3.204,4.78,1.927,5.553C1.743,5.664,1.5,5.881,1.5,6.5c0,0.542,0.191,0.958,0.585,1.27    C3.65,9.01,7.887,8.366,9.386,8.013C9.659,7.95,9.924,8.118,9.986,8.386c0.063,0.269-0.104,0.538-0.372,0.601    C9.472,9.021,7.407,9.496,5.285,9.496z"/></g><g><path d="M3.921,12.818c-1.03,0-1.905-0.284-2.355-1.07c-0.277-0.487-0.352-1.009-0.215-1.511C1.627,9.229,2.639,8.63,2.753,8.565    c0.239-0.137,0.542-0.052,0.681,0.187C3.57,8.991,3.487,9.296,3.248,9.434c-0.143,0.082-1.377,0.833-0.813,1.818    c0.828,1.453,5.306-0.182,7.342-1.199c0.249-0.124,0.547-0.024,0.671,0.224c0.123,0.247,0.023,0.547-0.224,0.67    C9.712,11.203,6.378,12.818,3.921,12.818z"/></g><g><path d="M6,21c-0.128,0-0.256-0.049-0.354-0.146c-0.195-0.195-0.195-0.512,0-0.707L6.5,19.293V15.5    c0-0.04,0.005-0.079,0.014-0.117l0.979-4.063c0.065-0.267,0.331-0.437,0.604-0.369c0.269,0.064,0.434,0.334,0.369,0.603L7.5,15.56    v3.94c0,0.133-0.053,0.26-0.146,0.354l-1,1C6.256,20.951,6.128,21,6,21z"/></g><g><path d="M4,19c-0.128,0-0.256-0.049-0.354-0.146c-0.195-0.195-0.195-0.512,0-0.707L4.5,17.293V14.5    c0-0.114,0.039-0.224,0.109-0.313l2-2.5c0.174-0.215,0.488-0.249,0.703-0.078c0.216,0.173,0.25,0.487,0.078,0.703L5.5,14.675V17.5    c0,0.133-0.053,0.26-0.146,0.354l-1,1C4.256,18.951,4.128,19,4,19z"/></g><g><path d="M10.5,3.5c-0.226,0-0.431-0.154-0.486-0.383C10.009,3.095,9.484,1,8,1C7.724,1,7.5,0.776,7.5,0.5S7.724,0,8,0    c2.275,0,2.959,2.767,2.986,2.884c0.063,0.269-0.102,0.537-0.37,0.602C10.577,3.495,10.538,3.5,10.5,3.5z"/></g><g><path d="M13.001,7c-0.135,0-0.27-0.055-0.368-0.162c-0.187-0.203-0.174-0.519,0.028-0.706C12.67,6.125,13.5,5.345,13.5,4.5    C13.5,3.687,12.813,3,12,3s-1.5,0.687-1.5,1.5c0,0.845,0.83,1.625,0.839,1.632c0.202,0.188,0.215,0.503,0.028,0.706    s-0.502,0.217-0.705,0.03C10.614,6.825,9.5,5.789,9.5,4.5C9.5,3.122,10.621,2,12,2s2.5,1.122,2.5,2.5    c0,1.289-1.114,2.325-1.162,2.369C13.242,6.957,13.121,7,13.001,7z"/></g><g><path d="M12,24c-2.761,0-3.5-8.372-3.5-9.5c0-1.665,0.967-2.697,1.768-3.193C9.8,10.57,9,9.144,9,8c0-0.913,0.521-2,3-2    s3,1.087,3,2c0,1.144-0.8,2.57-1.268,3.307c0.801,0.496,1.768,1.528,1.768,3.193C15.5,15.628,14.761,24,12,24z M12,7    c-2,0-2,0.752-2,1c0,1.046,1.014,2.669,1.404,3.206c0.093,0.127,0.12,0.292,0.073,0.442c-0.047,0.151-0.162,0.271-0.311,0.323    C11.102,11.996,9.5,12.604,9.5,14.5c0,3.047,1.26,8.5,2.5,8.5s2.5-5.453,2.5-8.5c0-1.916-1.65-2.523-1.667-2.529    c-0.148-0.053-0.264-0.172-0.311-0.323c-0.047-0.151-0.02-0.315,0.073-0.442C12.986,10.668,14,9.043,14,8C14,7.752,14,7,12,7z"/></g><g><path d="M14.999,15c-0.106,0-0.215-0.034-0.306-0.104C14.682,14.886,13.516,14,12,14s-2.682,0.886-2.693,0.895    c-0.219,0.168-0.533,0.128-0.701-0.089c-0.169-0.218-0.13-0.531,0.087-0.7C8.75,14.061,10.131,13,12,13s3.25,1.061,3.308,1.106    c0.217,0.169,0.256,0.482,0.087,0.7C15.296,14.933,15.148,15,14.999,15z"/></g><g><path d="M14.5,17.999c-0.125,0-0.25-0.046-0.347-0.139C14.145,17.852,13.238,17,12,17s-2.145,0.852-2.153,0.86    c-0.197,0.189-0.515,0.185-0.706-0.014s-0.187-0.514,0.012-0.705C9.2,17.094,10.348,16,12,16s2.8,1.094,2.848,1.141    c0.198,0.191,0.203,0.506,0.012,0.705C14.762,17.948,14.631,17.999,14.5,17.999z"/></g><g><path d="M14,21c-0.15,0-0.3-0.068-0.398-0.198l0,0C13.596,20.794,12.975,20,12,20s-1.596,0.794-1.602,0.802    c-0.168,0.219-0.479,0.26-0.7,0.095C9.479,20.731,9.435,20.42,9.6,20.2C9.637,20.151,10.517,19,12,19s2.363,1.151,2.4,1.2    c0.165,0.221,0.12,0.534-0.101,0.7C14.21,20.967,14.104,21,14,21z"/></g><g><path d="M18.715,9.496c-2.123,0-4.187-0.475-4.329-0.509c-0.269-0.063-0.436-0.333-0.372-0.601    c0.063-0.268,0.329-0.436,0.601-0.373c1.502,0.352,5.739,0.995,7.301-0.244C22.309,7.458,22.5,7.042,22.5,6.5    c0-0.619-0.243-0.837-0.427-0.947c-1.284-0.774-5.184,0.748-7.34,1.889c-0.241,0.128-0.546,0.036-0.676-0.208    c-0.129-0.244-0.035-0.547,0.209-0.676c0.621-0.33,6.136-3.177,8.323-1.862c0.415,0.25,0.91,0.766,0.91,1.804    c0,0.855-0.324,1.546-0.965,2.053C21.622,9.277,20.155,9.496,18.715,9.496z"/></g><g><path d="M20.079,12.818c-2.457,0-5.791-1.616-6.303-1.871c-0.247-0.123-0.347-0.423-0.224-0.67    c0.124-0.247,0.424-0.346,0.671-0.224c2.037,1.017,6.516,2.65,7.342,1.199c0.147-0.258,0.187-0.504,0.119-0.75    c-0.143-0.52-0.735-0.956-0.932-1.067c-0.24-0.136-0.324-0.441-0.188-0.682c0.136-0.241,0.44-0.324,0.682-0.188    c0.114,0.065,1.126,0.664,1.402,1.672c0.137,0.501,0.063,1.024-0.215,1.511C21.984,12.535,21.108,12.818,20.079,12.818z"/></g><g><path d="M18,21c-0.128,0-0.256-0.049-0.354-0.146l-1-1C16.553,19.76,16.5,19.633,16.5,19.5v-3.94l-0.966-4.005    c-0.064-0.269,0.101-0.539,0.369-0.603c0.271-0.068,0.538,0.102,0.604,0.369l0.979,4.063C17.495,15.421,17.5,15.46,17.5,15.5    v3.793l0.854,0.854c0.195,0.195,0.195,0.512,0,0.707C18.256,20.951,18.128,21,18,21z"/></g><g><path d="M20,19c-0.128,0-0.256-0.049-0.354-0.146l-1-1C18.553,17.76,18.5,17.633,18.5,17.5v-2.825l-1.891-2.363    c-0.172-0.216-0.138-0.53,0.078-0.703c0.218-0.172,0.531-0.137,0.703,0.078l2,2.5c0.07,0.089,0.109,0.199,0.109,0.313v2.793    l0.854,0.854c0.195,0.195,0.195,0.512,0,0.707C20.256,18.951,20.128,19,20,19z"/></g><g><path d="M13.5,3.5c-0.038,0-0.077-0.004-0.115-0.014c-0.269-0.063-0.435-0.333-0.371-0.602C13.041,2.767,13.725,0,16,0    c0.276,0,0.5,0.224,0.5,0.5S16.276,1,16,1c-1.494,0-2.009,2.094-2.014,2.116C13.932,3.345,13.727,3.5,13.5,3.5z"/></g></g></svg>