<svg xmlns:dc="http://purl.org/dc/elements/1.1/" xmlns:cc="http://creativecommons.org/ns#" xmlns:rdf="http://www.w3.org/1999/02/22-rdf-syntax-ns#" xmlns:svg="http://www.w3.org/2000/svg" xmlns="http://www.w3.org/2000/svg" xmlns:sodipodi="http://sodipodi.sourceforge.net/DTD/sodipodi-0.dtd" xmlns:inkscape="http://www.inkscape.org/namespaces/inkscape" viewBox="0 0 48 48.000001" version="1.1" x="0px" y="0px"><g transform="translate(0,-1004.3622)"><path style="color:#000000;font-style:normal;font-variant:normal;font-weight:normal;font-stretch:normal;font-size:medium;line-height:normal;font-family:sans-serif;text-indent:0;text-align:start;text-decoration:none;text-decoration-line:none;text-decoration-style:solid;text-decoration-color:#000000;letter-spacing:normal;word-spacing:normal;text-transform:none;direction:ltr;block-progression:tb;writing-mode:lr-tb;baseline-shift:baseline;text-anchor:start;white-space:normal;clip-rule:nonzero;display:inline;overflow:visible;visibility:visible;opacity:1;isolation:auto;mix-blend-mode:normal;color-interpolation:sRGB;color-interpolation-filters:linearRGB;solid-color:#000000;solid-opacity:1;fill:#000000;fill-opacity:1;fill-rule:nonzero;stroke:none;stroke-width:2;stroke-linecap:round;stroke-linejoin:round;stroke-miterlimit:4;stroke-dasharray:none;stroke-dashoffset:0;stroke-opacity:1;color-rendering:auto;image-rendering:auto;shape-rendering:auto;text-rendering:auto;enable-background:accumulate" d="m 6.9988895,1018.365 c -1.6448089,0 -3.000202,1.3533 -3.000202,2.9979 0,1.6447 1.3553931,3 3.000202,3 l 8.0005385,0 0,-2 -8.0005385,0 c -0.5713403,0 -1.0000674,-0.4287 -1.0000674,-1 0,-0.5712 0.4287271,-0.998 1.0000674,-0.998 l 26.0017495,0 c 0.571341,0 1.000068,0.4268 1.000068,0.998 0,0.5713 -0.428727,1 -1.000068,1 l -10.029971,0 0,2 10.029971,0 c 1.644809,0 3.000202,-1.3553 3.000202,-3 0,-1.6446 -1.355393,-2.9979 -3.000202,-2.9979 l -26.0017495,0 z"/><path style="color:#000000;font-style:normal;font-variant:normal;font-weight:normal;font-stretch:normal;font-size:medium;line-height:normal;font-family:sans-serif;text-indent:0;text-align:start;text-decoration:none;text-decoration-line:none;text-decoration-style:solid;text-decoration-color:#000000;letter-spacing:normal;word-spacing:normal;text-transform:none;direction:ltr;block-progression:tb;writing-mode:lr-tb;baseline-shift:baseline;text-anchor:start;white-space:normal;clip-rule:nonzero;display:inline;overflow:visible;visibility:visible;opacity:1;isolation:auto;mix-blend-mode:normal;color-interpolation:sRGB;color-interpolation-filters:linearRGB;solid-color:#000000;solid-opacity:1;fill:#000000;fill-opacity:1;fill-rule:nonzero;stroke:none;stroke-width:2;stroke-linecap:round;stroke-linejoin:round;stroke-miterlimit:4;stroke-dasharray:none;stroke-dashoffset:0;stroke-opacity:1;color-rendering:auto;image-rendering:auto;shape-rendering:auto;text-rendering:auto;enable-background:accumulate" d="m 8.9990241,1014.3622 c -1.6448088,0 -3.000202,1.3553 -3.000202,2.9999 0,1.6447 1.3553932,3 3.000202,3 l 22.0014799,0 c 1.64481,0 3.000203,-1.3553 3.000203,-3 0,-1.6446 -1.355393,-2.9999 -3.000203,-2.9999 l -22.0014799,0 z m 0,2 22.0014799,0 c 0.571341,0 1.000068,0.4287 1.000068,0.9999 0,0.5713 -0.428727,1 -1.000068,1 l -22.0014799,0 c -0.5713404,0 -1.0000673,-0.4287 -1.0000673,-1 0,-0.5712 0.4287269,-0.9999 1.0000673,-0.9999 z"/><path style="color:#000000;font-style:normal;font-variant:normal;font-weight:normal;font-stretch:normal;font-size:medium;line-height:normal;font-family:sans-serif;text-indent:0;text-align:start;text-decoration:none;text-decoration-line:none;text-decoration-style:solid;text-decoration-color:#000000;letter-spacing:normal;word-spacing:normal;text-transform:none;direction:ltr;block-progression:tb;writing-mode:lr-tb;baseline-shift:baseline;text-anchor:start;white-space:normal;clip-rule:nonzero;display:inline;overflow:visible;visibility:visible;opacity:1;isolation:auto;mix-blend-mode:normal;color-interpolation:sRGB;color-interpolation-filters:linearRGB;solid-color:#000000;solid-opacity:1;fill:#000000;fill-opacity:1;fill-rule:nonzero;stroke:none;stroke-width:2;stroke-linecap:round;stroke-linejoin:round;stroke-miterlimit:4;stroke-dasharray:none;stroke-dashoffset:0;stroke-opacity:1;color-rendering:auto;image-rendering:auto;shape-rendering:auto;text-rendering:auto;enable-background:accumulate" d="m 11.999226,1010.3623 c -1.644809,0 -3.0002019,1.3553 -3.0002019,3 0,1.6446 1.3553929,2.9999 3.0002019,2.9999 l 16.001077,0 c 1.644808,0 3.000201,-1.3553 3.000201,-2.9999 0,-1.6447 -1.355393,-3 -3.000201,-3 l -16.001077,0 z m 0,2 16.001077,0 c 0.57134,0 1.000068,0.4287 1.000068,1 0,0.5712 -0.428728,0.9999 -1.000068,0.9999 l -16.001077,0 c -0.57134,0 -1.000068,-0.4287 -1.000068,-0.9999 0,-0.5713 0.428728,-1 1.000068,-1 z"/><path style="color:#000000;font-style:normal;font-variant:normal;font-weight:normal;font-stretch:normal;font-size:medium;line-height:normal;font-family:sans-serif;text-indent:0;text-align:start;text-decoration:none;text-decoration-line:none;text-decoration-style:solid;text-decoration-color:#000000;letter-spacing:normal;word-spacing:normal;text-transform:none;direction:ltr;block-progression:tb;writing-mode:lr-tb;baseline-shift:baseline;text-anchor:start;white-space:normal;clip-rule:nonzero;display:inline;overflow:visible;visibility:visible;opacity:1;isolation:auto;mix-blend-mode:normal;color-interpolation:sRGB;color-interpolation-filters:linearRGB;solid-color:#000000;solid-opacity:1;fill:#000000;fill-opacity:1;fill-rule:nonzero;stroke:none;stroke-width:2;stroke-linecap:round;stroke-linejoin:round;stroke-miterlimit:4;stroke-dasharray:none;stroke-dashoffset:0;stroke-opacity:1;color-rendering:auto;image-rendering:auto;shape-rendering:auto;text-rendering:auto;enable-background:accumulate" d="m 22.629391,1022.3629 0.370576,2 11.00074,0 c 0.571335,0 1.000067,0.4287 1.000067,0.9999 0,0.5713 -0.428732,1 -1.000067,1 l -11.00074,0 0,2 11.00074,0 c 1.644813,0 3.000201,-1.3553 3.000201,-3 0,-1.6446 -1.355388,-2.9999 -3.000201,-2.9999 z"/><path style="color:#000000;font-style:normal;font-variant:normal;font-weight:normal;font-stretch:normal;font-size:medium;line-height:normal;font-family:sans-serif;text-indent:0;text-align:start;text-decoration:none;text-decoration-line:none;text-decoration-style:solid;text-decoration-color:#000000;letter-spacing:normal;word-spacing:normal;text-transform:none;direction:ltr;block-progression:tb;writing-mode:lr-tb;baseline-shift:baseline;text-anchor:start;white-space:normal;clip-rule:nonzero;display:inline;overflow:visible;visibility:visible;opacity:1;isolation:auto;mix-blend-mode:normal;color-interpolation:sRGB;color-interpolation-filters:linearRGB;solid-color:#000000;solid-opacity:1;fill:#000000;fill-opacity:1;fill-rule:nonzero;stroke:none;stroke-width:2;stroke-linecap:round;stroke-linejoin:round;stroke-miterlimit:4;stroke-dasharray:none;stroke-dashoffset:0;stroke-opacity:1;color-rendering:auto;image-rendering:auto;shape-rendering:auto;text-rendering:auto;enable-background:accumulate" d="m 7.9989568,1026.3639 c -1.6448088,0 -3.0002019,1.3533 -3.0002019,2.9979 0,1.6447 1.3553931,3 3.0002019,3 l 24.0016152,0 c 1.644808,0 3.000202,-1.3553 3.000202,-3 0,-1.6446 -1.355394,-2.9979 -3.000202,-2.9979 l -24.0016152,0 z m 0,2 24.0016152,0 c 0.571341,0 1.000067,0.4266 1.000067,0.9979 0,0.5713 -0.428726,1 -1.000067,1 l -24.0016152,0 c -0.5713404,0 -1.0000673,-0.4287 -1.0000673,-1 0,-0.5713 0.4287269,-0.9979 1.0000673,-0.9979 z"/><path style="color:#000000;font-style:normal;font-variant:normal;font-weight:normal;font-stretch:normal;font-size:medium;line-height:normal;font-family:sans-serif;text-indent:0;text-align:start;text-decoration:none;text-decoration-line:none;text-decoration-style:solid;text-decoration-color:#000000;letter-spacing:normal;word-spacing:normal;text-transform:none;direction:ltr;block-progression:tb;writing-mode:lr-tb;baseline-shift:baseline;text-anchor:start;white-space:normal;clip-rule:nonzero;display:inline;overflow:visible;visibility:visible;opacity:1;isolation:auto;mix-blend-mode:normal;color-interpolation:sRGB;color-interpolation-filters:linearRGB;solid-color:#000000;solid-opacity:1;fill:#000000;fill-opacity:1;fill-rule:nonzero;stroke:none;stroke-width:2;stroke-linecap:round;stroke-linejoin:round;stroke-miterlimit:4;stroke-dasharray:none;stroke-dashoffset:0;stroke-opacity:1;color-rendering:auto;image-rendering:auto;shape-rendering:auto;text-rendering:auto;enable-background:accumulate" d="m 10.999158,1030.3638 c -1.6448081,0 -3.0002012,1.3533 -3.0002012,2.9979 0,1.6447 1.3553931,2.9999 3.0002012,2.9999 l 18.001213,0 c 1.644808,0 3.000201,-1.3552 3.000201,-2.9999 0,-1.6446 -1.355393,-2.9979 -3.000201,-2.9979 l -18.001213,0 z m 0,2 18.001213,0 c 0.571339,0 1.000066,0.4266 1.000066,0.9979 0,0.5713 -0.428727,1 -1.000066,1 l -18.001213,0 c -0.57134,0 -1.0000664,-0.4287 -1.0000664,-1 0,-0.5713 0.4287264,-0.9979 1.0000664,-0.9979 z"/><path style="color:#000000;font-style:normal;font-variant:normal;font-weight:normal;font-stretch:normal;font-size:medium;line-height:normal;font-family:sans-serif;text-indent:0;text-align:start;text-decoration:none;text-decoration-line:none;text-decoration-style:solid;text-decoration-color:#000000;letter-spacing:normal;word-spacing:normal;text-transform:none;direction:ltr;block-progression:tb;writing-mode:lr-tb;baseline-shift:baseline;text-anchor:start;white-space:normal;clip-rule:nonzero;display:inline;overflow:visible;visibility:visible;opacity:1;isolation:auto;mix-blend-mode:normal;color-interpolation:sRGB;color-interpolation-filters:linearRGB;solid-color:#000000;solid-opacity:1;fill:#000000;fill-opacity:1;fill-rule:nonzero;stroke:none;stroke-width:1.99999988;stroke-linecap:round;stroke-linejoin:round;stroke-miterlimit:4;stroke-dasharray:none;stroke-dashoffset:0;stroke-opacity:1;color-rendering:auto;image-rendering:auto;shape-rendering:auto;text-rendering:auto;enable-background:accumulate" d="m 12.999293,1034.3637 c -1.644808,0 -3.0002014,1.3533 -3.0002014,2.9979 0,1.6447 1.3553934,2.9999 3.0002014,2.9999 l 14.000943,0 c 1.644808,0 3.000201,-1.3552 3.000201,-2.9999 0,-1.6446 -1.355393,-2.9979 -3.000201,-2.9979 l -14.000943,0 z m 0,1.9979 14.000943,0 c 0.57134,0 1.000067,0.4287 1.000067,1 0,0.5713 -0.428727,1 -1.000067,1 l -14.000943,0 c -0.57134,0 -1.000067,-0.4287 -1.000067,-1 0,-0.5713 0.428727,-1 1.000067,-1 z"/><path style="color:#000000;font-style:normal;font-variant:normal;font-weight:normal;font-stretch:normal;font-size:medium;line-height:normal;font-family:sans-serif;text-indent:0;text-align:start;text-decoration:none;text-decoration-line:none;text-decoration-style:solid;text-decoration-color:#000000;letter-spacing:normal;word-spacing:normal;text-transform:none;direction:ltr;block-progression:tb;writing-mode:lr-tb;baseline-shift:baseline;text-anchor:start;white-space:normal;clip-rule:nonzero;display:inline;overflow:visible;visibility:visible;opacity:1;isolation:auto;mix-blend-mode:normal;color-interpolation:sRGB;color-interpolation-filters:linearRGB;solid-color:#000000;solid-opacity:1;fill:#000000;fill-opacity:1;fill-rule:nonzero;stroke:none;stroke-width:2;stroke-linecap:round;stroke-linejoin:round;stroke-miterlimit:4;stroke-dasharray:none;stroke-dashoffset:0;stroke-opacity:1;color-rendering:auto;image-rendering:auto;shape-rendering:auto;text-rendering:auto;enable-background:accumulate" d="m 16.999562,1006.3624 c -1.644808,0 -3.000201,1.3553 -3.000201,3 0,1.6446 1.355393,2.9999 3.000201,2.9999 l 6.000405,0 c 1.644808,0 3.000201,-1.3553 3.000201,-2.9999 0,-1.6447 -1.355393,-3 -3.000201,-3 l -6.000405,0 z m 0,2 6.000405,0 c 0.57134,0 1.000066,0.4287 1.000066,1 0,0.5712 -0.428726,0.9999 -1.000066,0.9999 l -6.000405,0 c -0.57134,0 -1.000067,-0.4287 -1.000067,-0.9999 0,-0.5713 0.428727,-1 1.000067,-1 z"/><path style="color:#000000;font-style:normal;font-variant:normal;font-weight:normal;font-stretch:normal;font-size:medium;line-height:normal;font-family:sans-serif;text-indent:0;text-align:start;text-decoration:none;text-decoration-line:none;text-decoration-style:solid;text-decoration-color:#000000;letter-spacing:normal;word-spacing:normal;text-transform:none;direction:ltr;block-progression:tb;writing-mode:lr-tb;baseline-shift:baseline;text-anchor:start;white-space:normal;clip-rule:nonzero;display:inline;overflow:visible;visibility:visible;opacity:1;isolation:auto;mix-blend-mode:normal;color-interpolation:sRGB;color-interpolation-filters:linearRGB;solid-color:#000000;solid-opacity:1;fill:#000000;fill-opacity:1;fill-rule:nonzero;stroke:none;stroke-width:2;stroke-linecap:round;stroke-linejoin:round;stroke-miterlimit:4;stroke-dasharray:none;stroke-dashoffset:0;stroke-opacity:1;color-rendering:auto;image-rendering:auto;shape-rendering:auto;text-rendering:auto;enable-background:accumulate" d="m 18.999697,1019.3621 c -0.691007,0 -1.381981,0.1802 -2.000135,0.5371 -1.236309,0.7138 -2.000138,2.0353 -2.000134,3.4628 l 0,3.9999 a 1.0001674,1.0000735 0 0 0 1.000067,1 l 6.000404,0 a 1.0001674,1.0000735 0 0 0 1.000068,-1 l 0,-3.9999 c 4e-6,-1.4275 -0.763826,-2.749 -2.000135,-3.4628 -0.618153,-0.3569 -1.309128,-0.5371 -2.000135,-0.5371 z m 0,1.9999 c 0.344962,0 0.689955,0.089 1.000067,0.2676 0.620228,0.3581 1.00007,1.0162 1.000068,1.7324 l 0,2.9999 -4.00027,0 0,-2.9999 c -2e-6,-0.7162 0.37984,-1.3743 1.000067,-1.7324 0.310113,-0.179 0.655107,-0.2676 1.000068,-0.2676 z"/><path d="m 34.000707,1046.4006 c 0,1.6236 -1.355388,2.9616 -3.000203,2.9616 -1.644813,0 -3.000201,-1.338 -3.000201,-2.9616 l 0,-1.2387 c -0.314897,0.1121 -0.648259,0.1851 -1.000067,0.1851 -1.644814,0 -3.000203,-1.338 -3.000203,-2.9616 l 0,-1.9744 c -0.0077,-0.5565 0.451902,-1.0093 1.015694,-1.0007 0.551553,0.01 0.991995,0.4564 0.984441,1.0007 l 0,1.9744 c 0,0.564 0.428732,0.9872 1.000068,0.9872 0.571335,0 1.000067,-0.4232 1.000067,-0.9872 l 0,0 c -0.0077,-0.5566 0.451901,-1.0094 1.015693,-1.0007 0.551553,0.01 0.991995,0.4563 0.984441,1.0007 l 0,0 0,4.0152 c 0,0.564 0.428733,0.9873 1.000067,0.9873 0.571336,0 1.000068,-0.4233 1.000068,-0.9873 l 0,-5.019 -0.01563,-4.0183 c -0.0077,-0.5566 0.451901,-1.0094 1.015693,-1.0007 0.551554,0.01 0.991994,0.4563 0.984441,1.0007 z" style="color:#000000;font-style:normal;font-variant:normal;font-weight:normal;font-stretch:normal;font-size:medium;line-height:normal;font-family:sans-serif;text-indent:0;text-align:start;text-decoration:none;text-decoration-line:none;text-decoration-style:solid;text-decoration-color:#000000;letter-spacing:normal;word-spacing:normal;text-transform:none;direction:ltr;block-progression:tb;writing-mode:lr-tb;baseline-shift:baseline;text-anchor:start;white-space:normal;clip-rule:nonzero;display:inline;overflow:visible;visibility:visible;opacity:1;isolation:auto;mix-blend-mode:normal;color-interpolation:sRGB;color-interpolation-filters:linearRGB;solid-color:#000000;solid-opacity:1;fill:#000000;fill-opacity:1;fill-rule:nonzero;stroke:none;stroke-width:1.99999988;stroke-linecap:round;stroke-linejoin:round;stroke-miterlimit:4;stroke-dasharray:none;stroke-dashoffset:0;stroke-opacity:1;color-rendering:auto;image-rendering:auto;shape-rendering:auto;text-rendering:auto;enable-background:accumulate"/><path style="color:#000000;font-style:normal;font-variant:normal;font-weight:normal;font-stretch:normal;font-size:medium;line-height:normal;font-family:sans-serif;text-indent:0;text-align:start;text-decoration:none;text-decoration-line:none;text-decoration-style:solid;text-decoration-color:#000000;letter-spacing:normal;word-spacing:normal;text-transform:none;direction:ltr;block-progression:tb;writing-mode:lr-tb;baseline-shift:baseline;text-anchor:start;white-space:normal;clip-rule:nonzero;display:inline;overflow:visible;visibility:visible;opacity:1;isolation:auto;mix-blend-mode:normal;color-interpolation:sRGB;color-interpolation-filters:linearRGB;solid-color:#000000;solid-opacity:1;fill:#000000;fill-opacity:1;fill-rule:evenodd;stroke:none;stroke-width:2;stroke-linecap:round;stroke-linejoin:round;stroke-miterlimit:4;stroke-dasharray:none;stroke-dashoffset:0;stroke-opacity:1;color-rendering:auto;image-rendering:auto;shape-rendering:auto;text-rendering:auto;enable-background:accumulate" d="m 39.001043,1007.3624 a 1.0001674,1.0000735 0 0 0 -0.800835,0.4004 l -2.990436,3.9882 a 1.0002809,1.000187 0 1 0 1.599717,1.2012 l 2.691588,-3.5898 4.48663,0 a 1.0001674,1.0000735 0 1 0 0,-2 l -4.986664,0 z"/><path style="color:#000000;font-style:normal;font-variant:normal;font-weight:normal;font-stretch:normal;font-size:medium;line-height:normal;font-family:sans-serif;text-indent:0;text-align:start;text-decoration:none;text-decoration-line:none;text-decoration-style:solid;text-decoration-color:#000000;letter-spacing:normal;word-spacing:normal;text-transform:none;direction:ltr;block-progression:tb;writing-mode:lr-tb;baseline-shift:baseline;text-anchor:start;white-space:normal;clip-rule:nonzero;display:inline;overflow:visible;visibility:visible;opacity:1;isolation:auto;mix-blend-mode:normal;color-interpolation:sRGB;color-interpolation-filters:linearRGB;solid-color:#000000;solid-opacity:1;fill:#000000;fill-opacity:1;fill-rule:evenodd;stroke:none;stroke-width:2;stroke-linecap:round;stroke-linejoin:round;stroke-miterlimit:4;stroke-dasharray:none;stroke-dashoffset:0;stroke-opacity:1;color-rendering:auto;image-rendering:auto;shape-rendering:auto;text-rendering:auto;enable-background:accumulate" d="m 40.993365,1007.3624 a 1.0001674,1.0000735 0 0 0 -0.820368,1.5684 l 1.673941,2.5097 -0.462922,0.9218 -0.843808,0 -1.699332,-2.5468 a 1.0001674,1.0000735 0 1 0 -1.664174,1.1093 l 1.998181,2.9941 a 1.0001674,1.0000735 0 0 0 0.830134,0.4433 l 1.998181,0 a 1.0001674,1.0000735 0 0 0 0.894592,-0.5508 l 0.998113,-1.9959 a 1.0001674,1.0000735 0 0 0 -0.06251,-1.002 l -1.996227,-2.994 a 1.0001674,1.0000735 0 0 0 -0.843807,-0.4571 z"/><path style="color:#000000;font-style:normal;font-variant:normal;font-weight:normal;font-stretch:normal;font-size:medium;line-height:normal;font-family:sans-serif;text-indent:0;text-align:start;text-decoration:none;text-decoration-line:none;text-decoration-style:solid;text-decoration-color:#000000;letter-spacing:normal;word-spacing:normal;text-transform:none;direction:ltr;block-progression:tb;writing-mode:lr-tb;baseline-shift:baseline;text-anchor:start;white-space:normal;clip-rule:nonzero;display:inline;overflow:visible;visibility:visible;opacity:1;isolation:auto;mix-blend-mode:normal;color-interpolation:sRGB;color-interpolation-filters:linearRGB;solid-color:#000000;solid-opacity:1;fill:#000000;fill-opacity:1;fill-rule:evenodd;stroke:none;stroke-width:2;stroke-linecap:round;stroke-linejoin:round;stroke-miterlimit:4;stroke-dasharray:none;stroke-dashoffset:0;stroke-opacity:1;color-rendering:auto;image-rendering:auto;shape-rendering:auto;text-rendering:auto;enable-background:accumulate" d="m 3.0122931,1041.3615 a 1.0001674,1.0000735 0 1 0 0,2 l 4.48663,0 2.6915879,3.5898 a 1.0002809,1.000187 0 1 0 1.599717,-1.2012 l -2.9904361,-3.9882 a 1.0001674,1.0000735 0 0 0 -0.8008351,-0.4004 l -4.9866637,0 z"/><path style="color:#000000;font-style:normal;font-variant:normal;font-weight:normal;font-stretch:normal;font-size:medium;line-height:normal;font-family:sans-serif;text-indent:0;text-align:start;text-decoration:none;text-decoration-line:none;text-decoration-style:solid;text-decoration-color:#000000;letter-spacing:normal;word-spacing:normal;text-transform:none;direction:ltr;block-progression:tb;writing-mode:lr-tb;baseline-shift:baseline;text-anchor:start;white-space:normal;clip-rule:nonzero;display:inline;overflow:visible;visibility:visible;opacity:1;isolation:auto;mix-blend-mode:normal;color-interpolation:sRGB;color-interpolation-filters:linearRGB;solid-color:#000000;solid-opacity:1;fill:#000000;fill-opacity:1;fill-rule:evenodd;stroke:none;stroke-width:2;stroke-linecap:round;stroke-linejoin:round;stroke-miterlimit:4;stroke-dasharray:none;stroke-dashoffset:0;stroke-opacity:1;color-rendering:auto;image-rendering:auto;shape-rendering:auto;text-rendering:auto;enable-background:accumulate" d="m 5.9773363,1041.3635 a 1.0001674,1.0000735 0 0 0 -0.8145079,0.4551 l -1.996228,2.994 a 1.0001674,1.0000735 0 0 0 -0.062504,1.002 l 0.998114,1.9959 a 1.0001674,1.0000735 0 0 0 0.8945914,0.5508 l 1.9981814,0 a 1.0001674,1.0000735 0 0 0 0.830134,-0.4433 l 1.9981808,-2.9941 a 1.0001674,1.0000735 0 1 0 -1.6641741,-1.1093 l -1.699333,2.5468 -0.8438068,0 -0.4629217,-0.9218 1.6739407,-2.5097 a 1.0001674,1.0000735 0 0 0 -0.8496669,-1.5664 z"/><path style="color:#000000;font-style:normal;font-variant:normal;font-weight:normal;font-stretch:normal;font-size:medium;line-height:normal;font-family:sans-serif;text-indent:0;text-align:start;text-decoration:none;text-decoration-line:none;text-decoration-style:solid;text-decoration-color:#000000;letter-spacing:normal;word-spacing:normal;text-transform:none;direction:ltr;block-progression:tb;writing-mode:lr-tb;baseline-shift:baseline;text-anchor:start;white-space:normal;clip-rule:nonzero;display:inline;overflow:visible;visibility:visible;opacity:1;isolation:auto;mix-blend-mode:normal;color-interpolation:sRGB;color-interpolation-filters:linearRGB;solid-color:#000000;solid-opacity:1;fill:#000000;fill-opacity:1;fill-rule:nonzero;stroke:none;stroke-width:2;stroke-linecap:round;stroke-linejoin:round;stroke-miterlimit:4;stroke-dasharray:none;stroke-dashoffset:0;stroke-opacity:1;color-rendering:auto;image-rendering:auto;shape-rendering:auto;text-rendering:auto;enable-background:accumulate" d="m 5.9988221,1022.3629 c -1.6448133,0 -3.0002019,1.3553 -3.0002019,2.9999 0,1.6447 1.3553886,3 3.0002019,3 l 9.1080349,0 c -0.06402,-0.1963 -0.107429,-0.401 -0.107429,-0.6192 l 0,-1.3808 -9.0006059,0 c -0.5713355,0 -1.0000672,-0.4287 -1.0000672,-1 0,-0.5712 0.4287317,-0.9999 1.0000672,-0.9999 l 9.0006059,0 0.312064,-2 z"/></g></svg>