<svg xmlns="http://www.w3.org/2000/svg" xmlns:xlink="http://www.w3.org/1999/xlink"><symbol class="bi bi-check" viewBox="0 0 16 16" id="check"><path d="M10.97 4.97a.75.75 0 0 1 1.07 1.05l-3.99 4.99a.75.75 0 0 1-1.08.02L4.324 8.384a.75.75 0 1 1 1.06-1.06l2.094 2.093 3.473-4.425z"/></symbol><symbol class="bi bi-clock" viewBox="0 0 16 16" id="clock"><path d="M8 3.5a.5.5 0 0 0-1 0V9a.5.5 0 0 0 .252.434l3.5 2a.5.5 0 0 0 .496-.868L8 8.71z"/><path d="M8 16A8 8 0 1 0 8 0a8 8 0 0 0 0 16m7-8A7 7 0 1 1 1 8a7 7 0 0 1 14 0"/></symbol><symbol class="bi bi-cloud-download" viewBox="0 0 16 16" id="cloud-download"><path d="M4.406 1.342A5.53 5.53 0 0 1 8 0c2.69 0 4.923 2 5.166 4.579C14.758 4.804 16 6.137 16 7.773 16 9.569 14.502 11 12.687 11H10a.5.5 0 0 1 0-1h2.688C13.979 10 15 8.988 15 7.773c0-1.216-1.02-2.228-2.313-2.228h-.5v-.5C12.188 2.825 10.328 1 8 1a4.53 4.53 0 0 0-2.941 1.1c-.757.652-1.153 1.438-1.153 2.055v.448l-.445.049C2.064 4.805 1 5.952 1 7.318 1 8.785 2.23 10 3.781 10H6a.5.5 0 0 1 0 1H3.781C1.708 11 0 9.366 0 7.318c0-1.763 1.266-3.223 2.942-3.593.143-.863.698-1.723 1.464-2.383"/><path d="M7.646 15.854a.5.5 0 0 0 .708 0l3-3a.5.5 0 0 0-.708-.708L8.5 14.293V5.5a.5.5 0 0 0-1 0v8.793l-2.146-2.147a.5.5 0 0 0-.708.708z"/></symbol><symbol class="bi bi-cloud-upload" viewBox="0 0 16 16" id="cloud-upload"><path fill-rule="evenodd" d="M4.406 1.342A5.53 5.53 0 0 1 8 0c2.69 0 4.923 2 5.166 4.579C14.758 4.804 16 6.137 16 7.773 16 9.569 14.502 11 12.687 11H10a.5.5 0 0 1 0-1h2.688C13.979 10 15 8.988 15 7.773c0-1.216-1.02-2.228-2.313-2.228h-.5v-.5C12.188 2.825 10.328 1 8 1a4.53 4.53 0 0 0-2.941 1.1c-.757.652-1.153 1.438-1.153 2.055v.448l-.445.049C2.064 4.805 1 5.952 1 7.318 1 8.785 2.23 10 3.781 10H6a.5.5 0 0 1 0 1H3.781C1.708 11 0 9.366 0 7.318c0-1.763 1.266-3.223 2.942-3.593.143-.863.698-1.723 1.464-2.383"/><path fill-rule="evenodd" d="M7.646 4.146a.5.5 0 0 1 .708 0l3 3a.5.5 0 0 1-.708.708L8.5 5.707V14.5a.5.5 0 0 1-1 0V5.707L5.354 7.854a.5.5 0 1 1-.708-.708z"/></symbol><symbol class="bi bi-copy" viewBox="0 0 16 16" id="copy"><path fill-rule="evenodd" d="M4 2a2 2 0 0 1 2-2h8a2 2 0 0 1 2 2v8a2 2 0 0 1-2 2H6a2 2 0 0 1-2-2zm2-1a1 1 0 0 0-1 1v8a1 1 0 0 0 1 1h8a1 1 0 0 0 1-1V2a1 1 0 0 0-1-1zM2 5a1 1 0 0 0-1 1v8a1 1 0 0 0 1 1h8a1 1 0 0 0 1-1v-1h1v1a2 2 0 0 1-2 2H2a2 2 0 0 1-2-2V6a2 2 0 0 1 2-2h1v1z"/></symbol><symbol class="bi bi-download" viewBox="0 0 16 16" id="download"><path d="M.5 9.9a.5.5 0 0 1 .5.5v2.5a1 1 0 0 0 1 1h12a1 1 0 0 0 1-1v-2.5a.5.5 0 0 1 1 0v2.5a2 2 0 0 1-2 2H2a2 2 0 0 1-2-2v-2.5a.5.5 0 0 1 .5-.5"/><path d="M7.646 11.854a.5.5 0 0 0 .708 0l3-3a.5.5 0 0 0-.708-.708L8.5 10.293V1.5a.5.5 0 0 0-1 0v8.793L5.354 8.146a.5.5 0 1 0-.708.708z"/></symbol><symbol class="bi bi-envelope" viewBox="0 0 16 16" id="envelope"><path d="M0 4a2 2 0 0 1 2-2h12a2 2 0 0 1 2 2v8a2 2 0 0 1-2 2H2a2 2 0 0 1-2-2zm2-1a1 1 0 0 0-1 1v.217l7 4.2 7-4.2V4a1 1 0 0 0-1-1zm13 2.383-4.708 2.825L15 11.105zm-.034 6.876-5.64-3.471L8 9.583l-1.326-.795-5.64 3.47A1 1 0 0 0 2 13h12a1 1 0 0 0 .966-.741M1 11.105l4.708-2.897L1 5.383z"/></symbol><symbol class="bi bi-exclamation-circle" viewBox="0 0 16 16" id="exclamation-circle"><path d="M8 15A7 7 0 1 1 8 1a7 7 0 0 1 0 14m0 1A8 8 0 1 0 8 0a8 8 0 0 0 0 16"/><path d="M7.002 11a1 1 0 1 1 2 0 1 1 0 0 1-2 0M7.1 4.995a.905.905 0 1 1 1.8 0l-.35 3.507a.552.552 0 0 1-1.1 0z"/></symbol><symbol class="bi bi-exclamation-triangle" viewBox="0 0 16 16" id="exclamation-triangle"><path d="M7.938 2.016A.13.13 0 0 1 8.002 2a.13.13 0 0 1 .063.016.15.15 0 0 1 .054.057l6.857 11.667c.036.06.035.124.002.183a.2.2 0 0 1-.054.06.1.1 0 0 1-.066.017H1.146a.1.1 0 0 1-.066-.017.2.2 0 0 1-.054-.06.18.18 0 0 1 .002-.183L7.884 2.073a.15.15 0 0 1 .054-.057m1.044-.45a1.13 1.13 0 0 0-1.96 0L.165 13.233c-.457.778.091 1.767.98 1.767h13.713c.889 0 1.438-.99.98-1.767z"/><path d="M7.002 12a1 1 0 1 1 2 0 1 1 0 0 1-2 0M7.1 5.995a.905.905 0 1 1 1.8 0l-.35 3.507a.552.552 0 0 1-1.1 0z"/></symbol><symbol class="bi bi-eye" viewBox="0 0 16 16" id="eye"><path d="M16 8s-3-5.5-8-5.5S0 8 0 8s3 5.5 8 5.5S16 8 16 8M1.173 8a13 13 0 0 1 1.66-2.043C4.12 4.668 5.88 3.5 8 3.5s3.879 1.168 5.168 2.457A13 13 0 0 1 14.828 8q-.086.13-.195.288c-.335.48-.83 1.12-1.465 1.755C11.879 11.332 10.119 12.5 8 12.5s-3.879-1.168-5.168-2.457A13 13 0 0 1 1.172 8z"/><path d="M8 5.5a2.5 2.5 0 1 0 0 5 2.5 2.5 0 0 0 0-5M4.5 8a3.5 3.5 0 1 1 7 0 3.5 3.5 0 0 1-7 0"/></symbol><symbol class="bi bi-file-earmark" viewBox="0 0 16 16" id="file-earmark"><path d="M14 4.5V14a2 2 0 0 1-2 2H4a2 2 0 0 1-2-2V2a2 2 0 0 1 2-2h5.5zm-3 0A1.5 1.5 0 0 1 9.5 3V1H4a1 1 0 0 0-1 1v12a1 1 0 0 0 1 1h8a1 1 0 0 0 1-1V4.5z"/></symbol><symbol class="bi bi-filetype-txt" viewBox="0 0 16 16" id="filetype-txt"><path fill-rule="evenodd" d="M14 4.5V14a2 2 0 0 1-2 2h-2v-1h2a1 1 0 0 0 1-1V4.5h-2A1.5 1.5 0 0 1 9.5 3V1H4a1 1 0 0 0-1 1v9H2V2a2 2 0 0 1 2-2h5.5zM1.928 15.849v-3.337h1.136v-.662H0v.662h1.134v3.337zm4.689-3.999h-.894L4.9 13.289h-.035l-.832-1.439h-.932l1.228 1.983-1.24 2.016h.862l.853-1.415h.035l.85 1.415h.907l-1.253-1.992zm1.93.662v3.337h-.794v-3.337H6.619v-.662h3.064v.662H8.546Z"/></symbol><symbol class="bi bi-fire" viewBox="0 0 16 16" id="fire"><path d="M8 16c3.314 0 6-2 6-5.5 0-1.5-.5-4-2.5-6 .25 1.5-1.25 2-1.25 2C11 4 9 .5 6 0c.357 2 .5 4-2 6-1.25 1-2 2.729-2 4.5C2 14 4.686 16 8 16m0-1c-1.657 0-3-1-3-2.75 0-.75.25-2 1.25-3C6.125 10 7 10.5 7 10.5c-.375-1.25.5-3.25 2-3.5-.179 1-.25 2 1 3 .625.5 1 1.364 1 2.25C11 14 9.657 15 8 15"/></symbol><symbol class="bi bi-flag" viewBox="0 0 16 16" id="flag"><path d="M14.778.085A.5.5 0 0 1 15 .5V8a.5.5 0 0 1-.314.464L14.5 8l.186.464-.003.001-.006.003-.023.009a12 12 0 0 1-.397.15c-.264.095-.631.223-1.047.35-.816.252-1.879.523-2.71.523-.847 0-1.548-.28-2.158-.525l-.028-.01C7.68 8.71 7.14 8.5 6.5 8.5c-.7 0-1.638.23-2.437.477A20 20 0 0 0 3 9.342V15.5a.5.5 0 0 1-1 0V.5a.5.5 0 0 1 1 0v.282c.226-.079.496-.17.79-.26C4.606.272 5.67 0 6.5 0c.84 0 1.524.277 2.121.519l.043.018C9.286.788 9.828 1 10.5 1c.7 0 1.638-.23 2.437-.477a20 20 0 0 0 1.349-.476l.019-.007.004-.002h.001M14 1.221c-.22.078-.48.167-.766.255-.81.252-1.872.523-2.734.523-.886 0-1.592-.286-2.203-.534l-.008-.003C7.662 1.21 7.139 1 6.5 1c-.669 0-1.606.229-2.415.478A21 21 0 0 0 3 1.845v6.433c.22-.078.48-.167.766-.255C4.576 7.77 5.638 7.5 6.5 7.5c.847 0 1.548.28 2.158.525l.028.01C9.32 8.29 9.86 8.5 10.5 8.5c.668 0 1.606-.229 2.415-.478A21 21 0 0 0 14 7.655V1.222z"/></symbol><symbol class="bi bi-globe" viewBox="0 0 16 16" id="globe"><path d="M0 8a8 8 0 1 1 16 0A8 8 0 0 1 0 8m7.5-6.923c-.67.204-1.335.82-1.887 1.855A8 8 0 0 0 5.145 4H7.5zM4.09 4a9.3 9.3 0 0 1 .64-1.539 7 7 0 0 1 .597-.933A7.03 7.03 0 0 0 2.255 4zm-.582 3.5c.03-.877.138-1.718.312-2.5H1.674a7 7 0 0 0-.656 2.5zM4.847 5a12.5 12.5 0 0 0-.338 2.5H7.5V5zM8.5 5v2.5h2.99a12.5 12.5 0 0 0-.337-2.5zM4.51 8.5a12.5 12.5 0 0 0 .337 2.5H7.5V8.5zm3.99 0V11h2.653c.187-.765.306-1.608.338-2.5zM5.145 12q.208.58.468 1.068c.552 1.035 1.218 1.65 1.887 1.855V12zm.182 2.472a7 7 0 0 1-.597-.933A9.3 9.3 0 0 1 4.09 12H2.255a7 7 0 0 0 3.072 2.472M3.82 11a13.7 13.7 0 0 1-.312-2.5h-2.49c.062.89.291 1.733.656 2.5zm6.853 3.472A7 7 0 0 0 13.745 12H11.91a9.3 9.3 0 0 1-.64 1.539 7 7 0 0 1-.597.933M8.5 12v2.923c.67-.204 1.335-.82 1.887-1.855q.26-.487.468-1.068zm3.68-1h2.146c.365-.767.594-1.61.656-2.5h-2.49a13.7 13.7 0 0 1-.312 2.5m2.802-3.5a7 7 0 0 0-.656-2.5H12.18c.174.782.282 1.623.312 2.5zM11.27 2.461c.247.464.462.98.64 1.539h1.835a7 7 0 0 0-3.072-2.472c.218.284.418.598.597.933M10.855 4a8 8 0 0 0-.468-1.068C9.835 1.897 9.17 1.282 8.5 1.077V4z"/></symbol><symbol class="bi bi-info-circle" viewBox="0 0 16 16" id="info-circle"><path d="M8 15A7 7 0 1 1 8 1a7 7 0 0 1 0 14m0 1A8 8 0 1 0 8 0a8 8 0 0 0 0 16"/><path d="m8.93 6.588-2.29.287-.082.38.45.083c.294.07.352.176.288.469l-.738 3.468c-.194.897.105 1.319.808 1.319.545 0 1.178-.252 1.465-.598l.088-.416c-.2.176-.492.246-.686.246-.275 0-.375-.193-.304-.533zM9 4.5a1 1 0 1 1-2 0 1 1 0 0 1 2 0"/></symbol><symbol class="bi bi-power" viewBox="0 0 16 16" id="power"><path d="M7.5 1v7h1V1z"/><path d="M3 8.812a5 5 0 0 1 2.578-4.375l-.485-.874A6 6 0 1 0 11 3.616l-.501.865A5 5 0 1 1 3 8.812"/></symbol><symbol class="bi bi-qr-code" viewBox="0 0 16 16" id="qr-code"><path d="M2 2h2v2H2z"/><path d="M6 0v6H0V0zM5 1H1v4h4zM4 12H2v2h2z"/><path d="M6 10v6H0v-6zm-5 1v4h4v-4zm11-9h2v2h-2z"/><path d="M10 0v6h6V0zm5 1v4h-4V1zM8 1V0h1v2H8v2H7V1zm0 5V4h1v2zM6 8V7h1V6h1v2h1V7h5v1h-4v1H7V8zm0 0v1H2V8H1v1H0V7h3v1zm10 1h-1V7h1zm-1 0h-1v2h2v-1h-1zm-4 0h2v1h-1v1h-1zm2 3v-1h-1v1h-1v1H9v1h3v-2zm0 0h3v1h-2v1h-1zm-4-1v1h1v-2H7v1z"/><path d="M7 12h1v3h4v1H7zm9 2v2h-3v-1h2v-1z"/></symbol><symbol class="bi bi-repeat" viewBox="0 0 16 16" id="repeat"><path d="M11 5.466V4H5a4 4 0 0 0-3.584 5.777.5.5 0 1 1-.896.446A5 5 0 0 1 5 3h6V1.534a.25.25 0 0 1 .41-.192l2.36 1.966c.12.1.12.284 0 .384l-2.36 1.966a.25.25 0 0 1-.41-.192m3.81.086a.5.5 0 0 1 .67.225A5 5 0 0 1 11 13H5v1.466a.25.25 0 0 1-.41.192l-2.36-1.966a.25.25 0 0 1 0-.384l2.36-1.966a.25.25 0 0 1 .41.192V12h6a4 4 0 0 0 3.585-5.777.5.5 0 0 1 .225-.67Z"/></symbol><symbol class="bi bi-send" viewBox="0 0 16 16" id="send"><path d="M15.854.146a.5.5 0 0 1 .11.54l-5.819 14.547a.75.75 0 0 1-1.329.124l-3.178-4.995L.643 7.184a.75.75 0 0 1 .124-1.33L15.314.037a.5.5 0 0 1 .54.11ZM6.636 10.07l2.761 4.338L14.13 2.576zm6.787-8.201L1.591 6.602l4.339 2.76z"/></symbol><symbol class="bi bi-trash" viewBox="0 0 16 16" id="trash"><path d="M5.5 5.5A.5.5 0 0 1 6 6v6a.5.5 0 0 1-1 0V6a.5.5 0 0 1 .5-.5m2.5 0a.5.5 0 0 1 .5.5v6a.5.5 0 0 1-1 0V6a.5.5 0 0 1 .5-.5m3 .5a.5.5 0 0 0-1 0v6a.5.5 0 0 0 1 0z"/><path d="M14.5 3a1 1 0 0 1-1 1H13v9a2 2 0 0 1-2 2H5a2 2 0 0 1-2-2V4h-.5a1 1 0 0 1-1-1V2a1 1 0 0 1 1-1H6a1 1 0 0 1 1-1h2a1 1 0 0 1 1 1h3.5a1 1 0 0 1 1 1zM4.118 4 4 4.059V13a1 1 0 0 0 1 1h6a1 1 0 0 0 1-1V4.059L11.882 4zM2.5 3h11V2h-11z"/></symbol></svg>
