<svg version="1" xmlns="http://www.w3.org/2000/svg" width="933.333" height="933.333" viewBox="0 0 700.000000 700.000000"><path d="M339 3.3c-7.3 3-301.3 158.2-306.7 161.8-5.9 4.1-10.1 9.6-11.8 15.4-1.1 4.2-1.4 32-1.7 170l-.3 165 2.3 5c3 6.5 7.2 10.8 15.2 15.5 8.1 4.8 291.3 155.3 299.4 159.1 7.4 3.5 14.5 4.4 21.2 2.6 5.1-1.3 301.3-156.9 311.2-163.5 3-1.9 6.4-5.1 7.8-7.1 5.5-8.3 5.1 1.5 5.5-177.2l.4-165.4-2.3-5c-3-6.5-7.2-10.8-15.2-15.5-3.6-2.1-42.3-22.8-86-46s-83.1-44.2-87.5-46.5c-4.4-2.4-22.2-11.8-39.5-21S416.4 32.1 412.5 30c-29.8-16-46.6-24.7-51.4-26.7-7.3-3-14.9-3-22.1 0zm9.3 1.2c-6.6 1.2-20.7 8.4-160.3 82.1-98.2 51.8-154.6 82.1-157.4 84.5-2.4 2.1-5.1 5.3-6 7.1l-1.7 3.3.6-3c.8-3.7 4.5-8.6 8.6-11.6 3.1-2.2 299-158.6 306.4-162 2.6-1.1 6.3-1.8 10.5-1.7h6.5l-7.2 1.3zm1 3.1c-3.4.7-9 2.7-12.3 4.4-6.1 3.1-263.3 138.7-288.8 152.3-10.3 5.4-14.4 8.3-18.2 12.4-3.3 3.6-4.6 4.6-4.2 3 .3-1.2 2.8-4.4 5.6-7.1 4.4-4.3 23.5-14.7 138.6-75.3C355.4-.5 342.6 6 349.7 6.1l5.8.1-6.2 1.4zm7.2 4.6c3.9 1.8 3 2.4-3.9 2.6-3.6.1-7.6.6-9.1 1.2-3.9 1.5-296.2 155.7-301.8 159.3-2.7 1.7-6 4.8-7.4 6.9-4 6-5.8 4.4-2.9-2.7 1.9-4.4 6.8-7.8 24.5-17.1 15.3-8 26.9-14.2 38.6-20.4 3.9-2.1 12.4-6.6 19-10 6.6-3.5 14.7-7.7 18-9.5 3.3-1.8 11.9-6.3 19-10 7.2-3.7 19.1-10 26.5-14 7.4-4 19.8-10.5 27.5-14.5 7.7-4 14.5-7.6 15-8 .6-.4 9.1-4.9 19-10s18.5-9.6 19-10c.6-.4 8.7-4.7 18-9.5 9.4-4.8 17.5-9.1 18-9.5.6-.4 9.1-4.9 19-10s19.5-10.2 21.3-11.3c9.2-5.5 16.1-6.5 22.7-3.5zm7.1 4.4c1.8 1.4 1.8 1.4-.6.3-3.1-1.4-3.6-1.9-2.4-1.9.6 0 1.9.7 3 1.6zm5.5 3.1c1.3 1.5 1.2 1.5-.8.4-2.4-1.2-2.9-2.1-1.4-2.1.5 0 1.5.7 2.2 1.7zm12.4 6.3c.3.6-.1.7-.9.4-1.8-.7-2.1-1.4-.7-1.4.6 0 1.3.4 1.6 1zm15 8c.3.6-.1.7-.9.4-1.8-.7-2.1-1.4-.7-1.4.6 0 1.3.4 1.6 1zm-9 36.7c49.4 26.2 218.7 116.4 230.9 123 6 3.2 11.9 7.1 13 8.7 2 2.6 2.1 4 2.4 37.4.1 19.1-.1 84.8-.5 145.9l-.8 111.3-2.5 2.4c-1.4 1.4-40.7 22.7-87.5 47.4-189.1 99.9-188.7 99.7-193 99.7-4.3 0-1 1.7-88.5-44.8-160.9-85.3-190.4-101.3-192.4-104l-2.1-2.9.1-144.3c.1-113.5.4-145.1 1.4-147.4.7-1.7 2.6-3.9 4.4-5 3.2-2 78.3-41.7 188.6-99.8 95.1-50.2 85.9-45.6 90.5-45 2.7.3 14.7 6.1 36 17.4zm88 5.3c.3.6-.1.7-.9.4-1.8-.7-2.1-1.4-.7-1.4.6 0 1.3.4 1.6 1z"/><path d="M327.5 137c-40.4 8.7-76.5 38.9-91.6 76.7-15.4 38.4-5 75.7 32.3 115 11 11.6 11.6 13.1 9.9 24.5-4.4 28.5-24.5 106.7-43.2 168.1-6.8 22.2-6.9 28.9-.3 36.5 7 8.2-.3 7.7 115.4 7.7 96.9 0 102.8-.1 107.2-1.8 9.5-3.7 14.9-13.9 12.9-24.4-.5-2.6-3-12-5.5-20.8-14.7-52.3-28.9-107.3-36.6-142-5.4-23.8-6.7-32.5-5.6-36.8.3-1.4 4.2-6.5 8.7-11.3 17.3-18.9 31.1-39.9 37.9-57.6 6.7-17.5 8.2-35.9 4.1-51.2-9.1-34-41.4-65-81.4-78-14.1-4.6-21.5-5.8-38.7-6.2-13.6-.3-18.1 0-25.5 1.6zm35.8 46.5c30.9 5.4 59 27.2 63.7 49.5 1.1 5.2 1.1 7-.4 12.8-4 16.3-15.1 33.4-34.7 53.7-9.5 9.8-14.7 16-16.1 19.2-3 6.6-3.5 19.9-1.4 33.4C377.9 373.9 390 425 406 485c3.8 14.5 7 27.7 7 29.2 0 2.3-.5 2.8-3.2 3.3-4.8.9-121.5.1-122.4-.8-.9-.9-.1-4.2 8.6-35.2 13.6-48.4 25.7-99.3 29.5-123.9 1.1-7 1.6-14.6 1.3-21.5-.5-15.4-2.5-19.1-17.4-33.4-13.7-13.2-22.2-24.1-27.7-35.6-3.5-7.2-4.1-9.5-4.5-16.6-.8-15 5.1-28.4 18.8-42.8 19.4-20.5 41.9-28.6 67.3-24.2zm75 68.9c-5 17.3-17.2 36.2-36.3 56-8.1 8.4-14.7 16.3-15.9 18.8l-2 4.3-.1-3.3c0-6 2.8-10.2 16.2-24 7.3-7.6 15.9-17.4 19.1-21.9 6.6-9.3 14.7-24.4 17.2-32.2 2.2-6.9 3.9-4.8 1.8 2.3zm-14.7 10.3c-6.5 13.1-15.7 25.4-29.2 39.2-7.2 7.5-14.1 15.2-15.3 17.1-1.8 2.8-2.1 3-1.6 1 1.3-4.6 4.3-8.4 14.5-18.5 5.6-5.5 12.9-13.5 16.3-17.8 6.1-7.8 17.7-26.1 17.7-28 0-.6.3-.8.6-.5.3.3-1 3.7-3 7.5zm2.1 2.6c-6.7 13.5-15.4 25.3-30.7 41.2-7.4 7.7-14 15-14.7 16-1.2 2-1.2 2-.6 0 1.3-4 3.9-7.2 16.3-20 13.9-14.4 23.1-26.8 29.3-39.2 2.3-4.5 4.3-8 4.6-7.8.2.3-1.6 4.7-4.2 9.8zM416 517.8c0 3.1-2.7 3.2-65.2 3.2-41.2 0-62.8-.3-62.8-1s21.5-1 62.4-1c40.6 0 62.7-.4 63.1-1 .7-1.2 2.5-1.3 2.5-.2zm4 3.8c0 1.1.6 1.5 1.8 1.1 4.5-1.2 4.7-1.2 4.7 1.2 0 1.5-1.1 3.2-2.8 4.5-2.8 2.1-3.2 2.1-72 2.1-64.3 0-69.4-.1-71.7-1.8-2.3-1.6.5-1.7 66.2-1.7 37.7 0 69.3-.3 70.2-.6.9-.3 1.6-1 1.6-1.5s-28.1-.9-66.4-.9c-36.6 0-66.7-.3-66.9-.8-.3-.4 29.1-.7 65.3-.7 51.4 0 66.2-.3 67.2-1.3 1.7-1.7 2.8-1.5 2.8.4z"/></svg>
